# xmcd CD database file
#
# Track frame offsets:
#	150
#	13270
#	21789
#	34129
#	47414
#	59866
#	71241
#	83775
#	94900
#	103597
#	113235
#	123562
#
# Disc length: 1757 seconds
#
# Revision: 0
# Processed by: cddbd v1.5.1PL0 Copyright (c) Steve Scherf et al.
# Submitted via: CDex 1.51
#
DISCID=a806db0c
DTITLE=Jerry Lee Lewis - Platinum Gold Collection
DYEAR=2004
DGENRE=Country
TTITLE0=Whole Lot of Shakin' Going On
TTITLE1=Great Balls of Fire
TTITLE2=Breathless
TTITLE3=You Win Again
TTITLE4=Crazy Arms
TTITLE5=High School Confidential
TTITLE6=It'll Be Me
TTITLE7=Big Legged Woman
TTITLE8=Real Wild Child (Wild One)
TTITLE9=Milkshake Mademoiselle
TTITLE10=Keep Your Hands Off It (Birthday Cake)
TTITLE11=Lovin' Up a Storm
EXTD=YEAR: 2004
EXTT0=
EXTT1=
EXTT2=
EXTT3=
EXTT4=
EXTT5=
EXTT6=
EXTT7=
EXTT8=
EXTT9=
EXTT10=
EXTT11=
PLAYORDER=
